<?xml version="1.0" encoding="utf-8"?>
<svg version="1.1" xmlns:xlink="http://www.w3.org/1999/xlink" width="19px" height="20px" xmlns="http://www.w3.org/2000/svg">
  <g transform="matrix(1 0 0 1 -811 -929 )">
    <path d="M 11.2505175983437 9.5390781563126  C 11.3816425120773 9.67267869071475  11.4472049689441 9.82631930527725  11.4472049689441 10  C 11.4472049689441 10.1736806947227  11.3816425120773 10.3273213092853  11.2505175983437 10.4609218436874  L 2.08488612836436 19.7995991983968  C 1.95376121463073 19.9331997327989  1.80296756383711 20  1.6325051759834 20  C 1.46204278812979 20  1.31124913733606 19.9331997327989  1.18012422360243 19.7995991983968  L 0.196687370600444 18.7975951903808  C 0.0655624568668145 18.6639946559786  0 18.5103540414161  0 18.3366733466934  C 0 18.1629926519706  0.0655624568668145 18.0093520374081  0.196687370600444 17.875751503006  L 7.92650103519668 10  L 0.196687370600444 2.12424849699403  C 0.0655624568668145 1.99064796259188  0 1.83700734802937  0 1.66332665330663  C 0 1.48964595858388  0.0655624568668145 1.33600534402137  0.196687370600444 1.20240480961922  L 1.18012422360243 0.200400801603223  C 1.31124913733606 0.0668002672010743  1.46204278812979 0  1.6325051759834 0  C 1.80296756383711 0  1.95376121463073 0.0668002672010743  2.08488612836436 0.200400801603223  L 11.2505175983437 9.5390781563126  Z M 18.8033126293996 9.5390781563126  C 18.9344375431332 9.67267869071475  19 9.82631930527725  19 10  C 19 10.1736806947227  18.9344375431332 10.3273213092853  18.8033126293996 10.4609218436874  L 9.63768115942026 19.7995991983968  C 9.50655624568662 19.9331997327989  9.35576259489301 20  9.18530020703929 20  C 9.01483781918569 20  8.86404416839196 19.9331997327989  8.73291925465833 19.7995991983968  L 7.74948240165634 18.7975951903808  C 7.61835748792271 18.6639946559786  7.55279503105589 18.5103540414161  7.55279503105589 18.3366733466934  C 7.55279503105589 18.1629926519706  7.61835748792271 18.0093520374081  7.74948240165634 17.875751503006  L 12.5329072595088 13.0020162296324  L 15.4792960662526 10  L 7.74948240165634 2.12424849699403  C 7.61835748792271 1.99064796259188  7.55279503105589 1.83700734802937  7.55279503105589 1.66332665330663  C 7.55279503105589 1.48964595858388  7.61835748792271 1.33600534402137  7.74948240165634 1.20240480961922  L 8.73291925465833 0.200400801603223  C 8.86404416839196 0.0668002672010743  9.01483781918569 0  9.18530020703929 0  C 9.35576259489301 0  9.50655624568662 0.0668002672010743  9.63768115942026 0.200400801603223  L 18.8033126293996 9.5390781563126  Z " fill-rule="nonzero" fill="#ffd452" stroke="none" transform="matrix(1 0 0 1 811 929 )" />
  </g>
</svg>